<?xml version="1.0" encoding="UTF-8"?>
<svg version="1.1" xmlns="http://www.w3.org/2000/svg" width="500" height="500">
<path d="M0 0 C24.40321849 21.30372482 39.13824063 50.83795105 41.37011719 83.15454102 C41.55204751 86.21555288 41.69433488 89.27569997 41.8125 92.33984375 C33.98320361 93.4109527 26.27017816 93.4925983 18.375 93.46484375 C17.38678253 93.4635144 17.38678253 93.4635144 16.37860107 93.4621582 C5.82690392 93.44549645 -4.66677988 93.13816398 -15.1875 92.33984375 C-15.34605469 91.1796875 -15.50460937 90.01953125 -15.66796875 88.82421875 C-18.31878671 70.60668733 -24.58482338 54.40196392 -39.1875 42.33984375 C-53.23437761 32.4347682 -68.93723367 25.92961352 -86.3515625 28.875 C-104.66156846 32.79857271 -119.04723297 41.07307505 -129.55859375 56.7578125 C-136.50854678 67.77440471 -139.52157974 79.49559853 -141.1875 92.33984375 C-147.47115807 93.26799097 -153.5790768 93.48610188 -159.92578125 93.47265625 C-160.92836472 93.47361298 -161.93094818 93.4745697 -162.96391296 93.47555542 C-165.06912296 93.47623239 -167.1743351 93.47441202 -169.27954102 93.47021484 C-172.50737138 93.46483146 -175.73506438 93.47019066 -178.96289062 93.4765625 C-181.01302114 93.47590218 -183.06315157 93.47462199 -185.11328125 93.47265625 C-186.07889481 93.47468048 -187.04450836 93.47670471 -188.03938293 93.47879028 C-188.9342894 93.47563812 -189.82919586 93.47248596 -190.7512207 93.46923828 C-191.93081108 93.46804489 -191.93081108 93.46804489 -193.13423157 93.46682739 C-195.1875 93.33984375 -195.1875 93.33984375 -198.1875 92.33984375 C-196.79676048 56.27652932 -184.11569001 26.7803016 -158.1875 1.33984375 C-154.9911878 -1.54510775 -151.68231496 -4.14775472 -148.1875 -6.66015625 C-147.27613281 -7.3253125 -146.36476562 -7.99046875 -145.42578125 -8.67578125 C-100.44732673 -40.14268401 -41.15580248 -34.82707914 0 0 Z " fill="#78C6F1" transform="translate(328.1875,198.66015625)"/>
<path d="M0 0 C79.2 0 158.4 0 240 0 C240 7.92 240 15.84 240 24 C238.07801559 25.92198441 235.20448686 25.12571027 232.64637947 25.13374341 C231.72392874 25.13151268 230.801478 25.12928196 229.85107422 25.12698364 C228.39302274 25.12932363 228.39302274 25.12932363 226.90551567 25.13171089 C223.62189123 25.13572541 220.33831236 25.1325295 217.0546875 25.12939453 C214.71136447 25.13074837 212.36804165 25.13252821 210.02471924 25.13470459 C203.64061211 25.13928097 197.25652106 25.13748852 190.87241364 25.1343255 C184.88227816 25.13205826 178.8921442 25.13378434 172.90200877 25.1352527 C160.31485728 25.13810759 147.72771307 25.13482032 135.14056277 25.12945233 C124.32873091 25.12498429 113.51690979 25.12576022 102.70507812 25.13037109 C90.16447078 25.13571669 77.62386981 25.1378329 65.08326149 25.13475883 C58.43943703 25.13317463 51.79561857 25.13300362 45.15179443 25.13629532 C38.90730804 25.13917276 32.66284203 25.13720069 26.41835785 25.13140106 C24.11927067 25.13007278 21.82018179 25.13046872 19.52109528 25.13266373 C16.3970152 25.13537256 13.27300156 25.13199738 10.14892578 25.12698364 C8.76524968 25.13032973 8.76524968 25.13032973 7.35362053 25.13374341 C1.11414981 25.11414981 1.11414981 25.11414981 0 24 C0 16.08 0 8.16 0 0 Z " fill="#C39EEC" transform="translate(130,306)"/>
<path d="M0 0 C79.2 0 158.4 0 240 0 C240 7.92 240 15.84 240 24 C238.07801559 25.92198441 235.20448686 25.12571027 232.64637947 25.13374341 C231.72392874 25.13151268 230.801478 25.12928196 229.85107422 25.12698364 C228.39302274 25.12932363 228.39302274 25.12932363 226.90551567 25.13171089 C223.62189123 25.13572541 220.33831236 25.1325295 217.0546875 25.12939453 C214.71136447 25.13074837 212.36804165 25.13252821 210.02471924 25.13470459 C203.64061211 25.13928097 197.25652106 25.13748852 190.87241364 25.1343255 C184.88227816 25.13205826 178.8921442 25.13378434 172.90200877 25.1352527 C160.31485728 25.13810759 147.72771307 25.13482032 135.14056277 25.12945233 C124.32873091 25.12498429 113.51690979 25.12576022 102.70507812 25.13037109 C90.16447078 25.13571669 77.62386981 25.1378329 65.08326149 25.13475883 C58.43943703 25.13317463 51.79561857 25.13300362 45.15179443 25.13629532 C38.90730804 25.13917276 32.66284203 25.13720069 26.41835785 25.13140106 C24.11927067 25.13007278 21.82018179 25.13046872 19.52109528 25.13266373 C16.3970152 25.13537256 13.27300156 25.13199738 10.14892578 25.12698364 C8.76524968 25.13032973 8.76524968 25.13032973 7.35362053 25.13374341 C1.11414981 25.11414981 1.11414981 25.11414981 0 24 C0 16.08 0 8.16 0 0 Z M2 2 C2 8.93 2 15.86 2 23 C79.88 23 157.76 23 238 23 C238 16.07 238 9.14 238 2 C160.12 2 82.24 2 2 2 Z " fill="#CFBFE3" transform="translate(130,306)"/>
<path d="M0 0 C2.31 0 4.62 0 7 0 C7 3.96 7 7.92 7 12 C11.1313635 10.51602399 11.1313635 10.51602399 11.828125 7.6171875 C11.96734375 6.71226562 12.1065625 5.80734375 12.25 4.875 C12.39953125 3.96492188 12.5490625 3.05484375 12.703125 2.1171875 C12.80109375 1.41851562 12.8990625 0.71984375 13 0 C14.98 0 16.96 0 19 0 C18.93970033 1.91752953 18.85083293 3.83417426 18.75 5.75 C18.68039063 7.35101563 18.68039063 7.35101563 18.609375 8.984375 C17.88696774 12.55936476 16.82887962 13.76862206 14 16 C11.8125 16.625 11.8125 16.625 10 17 C9.67 17.66 9.34 18.32 9 19 C10.43640171 19.19573608 11.87419504 19.38127816 13.3125 19.5625 C14.11300781 19.66691406 14.91351563 19.77132813 15.73828125 19.87890625 C18.16817116 20.14755178 18.16817116 20.14755178 21 19 C21 18.34 21 17.68 21 17 C21.66 17 22.32 17 23 17 C23.09087891 15.78763672 23.09087891 15.78763672 23.18359375 14.55078125 C23.26738281 13.48214844 23.35117188 12.41351563 23.4375 11.3125 C23.51871094 10.25675781 23.59992188 9.20101563 23.68359375 8.11328125 C23.96451681 5.34913703 24.40156852 2.71054259 25 0 C26.98 0 28.96 0 31 0 C29.98473282 16.03053435 29.98473282 16.03053435 27 22 C26.34 22 25.68 22 25 22 C25 22.66 25 23.32 25 24 C20.41039063 26.36883064 16.04901698 26.57881147 11 26 C6.72843125 24.4179375 4.35250695 22.87740065 2 19 C1.26953125 15.72265625 1.26953125 15.72265625 0.8125 12.0625 C0.65394531 10.85722656 0.49539062 9.65195312 0.33203125 8.41015625 C0.05567833 5.57184921 -0.07023289 2.84713342 0 0 Z " fill="#5D656D" transform="translate(141,350)"/>
<path d="M0 0 C2.375 -0.125 2.375 -0.125 5 0 C5.66 0.66 6.32 1.32 7 2 C7.66 1.34 8.32 0.68 9 0 C13.57557958 -0.6855398 17.68246693 -0.89977868 21.5625 1.75 C23.72432396 5.13372445 24.12771054 8.14220832 24.09765625 12.109375 C24.09443359 12.86347656 24.09121094 13.61757813 24.08789062 14.39453125 C24.07951172 15.17183594 24.07113281 15.94914062 24.0625 16.75 C24.05798828 17.54277344 24.05347656 18.33554687 24.04882812 19.15234375 C24.03708565 21.10159508 24.01915146 23.05080738 24 25 C19.71 25 15.42 25 11 25 C11 23.68 11 22.36 11 21 C14.465 20.505 14.465 20.505 18 20 C17.85866501 18.22880197 17.71176792 16.45804713 17.5625 14.6875 C17.48128906 13.70136719 17.40007812 12.71523438 17.31640625 11.69921875 C17.08187441 8.90624401 17.08187441 8.90624401 16 6 C13.54775306 6.10613836 13.54775306 6.10613836 11 7 C9.120726 10.758548 8.28274254 14.72765857 7.375 18.8125 C7.11460937 19.97394531 6.85421875 21.13539063 6.5859375 22.33203125 C6.39257812 23.21246094 6.19921875 24.09289062 6 25 C4.02 25 2.04 25 0 25 C0.50546125 21.46177123 1.01008026 17.94776591 1.6875 14.4375 C2.03170282 10.65126894 1.30243004 8.52422247 0 5 C-0.125 2.125 -0.125 2.125 0 0 Z " fill="#626973" transform="translate(317,350)"/>
<path d="M0 0 C2.56364483 -0.10845031 5.12266279 -0.18749744 7.6875 -0.25 C8.40873047 -0.28351563 9.12996094 -0.31703125 9.87304688 -0.3515625 C13.74374329 -0.42226015 15.56760851 -0.27233179 18.93359375 1.84765625 C21.99767207 5.03916316 22.96863575 7.780979 23.03125 12.2109375 C22.69657302 17.24782611 21.8535161 20.46761024 18 24 C13.20822377 26.87506574 7.06869346 26.68953489 1.72265625 25.48828125 C1.15417969 25.32714844 0.58570313 25.16601562 0 25 C0 23.35 0 21.7 0 20 C3 19 3 19 6.4375 19.5625 C9.97367906 19.9967676 11.18936079 20.05392865 14 18 C15.50934217 14.98131566 15.17510672 12.32702771 15 9 C13.39519216 5.87393036 13.39519216 5.87393036 11.0546875 5.48828125 C9.97574219 5.40126953 9.97574219 5.40126953 8.875 5.3125 C6.956875 5.1578125 6.956875 5.1578125 5 5 C5 6.65 5 8.3 5 10 C6.65 10.33 8.3 10.66 10 11 C10.5625 12.9375 10.5625 12.9375 11 15 C10 16 10 16 7.1875 16.25 C3.57386906 15.96657797 2.47709184 15.59428758 0 13 C-0.390625 9.86328125 -0.390625 9.86328125 -0.25 6.3125 C-0.21390625 5.13300781 -0.1778125 3.95351563 -0.140625 2.73828125 C-0.09421875 1.83464844 -0.0478125 0.93101562 0 0 Z " fill="#4D555D" transform="translate(268,350)"/>
<path d="M0 0 C3.1875 -0.5 3.1875 -0.5 7 0 C9.55351065 2.76841006 12 6.13887863 12 10 C12.66 10 13.32 10 14 10 C14.33 6.7 14.66 3.4 15 0 C17.31 0 19.62 0 22 0 C21.54740844 5.34058039 20.91355136 8.43965874 18 13 C18 14.32 18 15.64 18 17 C18 17.66 18 18.32 18 19 C18.66 19 19.32 19 20 19 C20.38218767 20.65614657 20.71395102 22.32457024 21 24 C20 25 20 25 18.14233398 25.11352539 C17.35157471 25.10828857 16.56081543 25.10305176 15.74609375 25.09765625 C14.89208984 25.09443359 14.03808594 25.09121094 13.15820312 25.08789062 C12.26037109 25.07951172 11.36253906 25.07113281 10.4375 25.0625 C9.53580078 25.05798828 8.63410156 25.05347656 7.70507812 25.04882812 C5.46998686 25.03700225 3.23502563 25.0205222 1 25 C1 23.68 1 22.36 1 21 C4.63 20.67 8.26 20.34 12 20 C11.46890625 19.27554687 10.9378125 18.55109375 10.390625 17.8046875 C8.25106128 14.87645248 6.12245617 11.94065493 4 9 C3.53078125 8.35289062 3.0615625 7.70578125 2.578125 7.0390625 C0.74535673 4.42271939 0 3.28245541 0 0 Z " fill="#4A545C" transform="translate(292,350)"/>
<path d="M0 0 C2 3 2 3 1.8125 6.375 C1 10 1 10 -0.44921875 12.3671875 C-6.05363864 21.88199608 -5.38692184 34.57767123 -6 45 C19.245 44.505 19.245 44.505 45 44 C46.32 37.4 47.64 30.8 49 24 C48.34 23.67 47.68 23.34 47 23 C47.33 22.34 47.66 21.68 48 21 C49.65 21.33 51.3 21.66 53 22 C51.35 30.25 49.7 38.5 48 47 C38.99770711 48.12528661 38.99770711 48.12528661 34.91674805 48.12939453 C34.00608078 48.13254669 33.09541351 48.13569885 32.15715027 48.13894653 C31.20165787 48.1369223 30.24616547 48.13489807 29.26171875 48.1328125 C28.25913528 48.13376923 27.25655182 48.13472595 26.22358704 48.13571167 C24.11837704 48.13638864 22.0131649 48.13456827 19.90795898 48.13037109 C16.68012862 48.12498771 13.45243562 48.13034691 10.22460938 48.13671875 C8.17447886 48.13605843 6.12434843 48.13477824 4.07421875 48.1328125 C3.10860519 48.13483673 2.14299164 48.13686096 1.14811707 48.13894653 C0.2532106 48.13579437 -0.64169586 48.13264221 -1.5637207 48.12939453 C-2.74331108 48.12820114 -2.74331108 48.12820114 -3.94673157 48.12698364 C-6 48 -6 48 -9 47 C-8.36273597 30.47508449 -5.65366384 15.55316217 0 0 Z " fill="#9BC9E1" transform="translate(139,244)"/>
<path d="M0 0 C1.41396973 -0.13595863 2.83176684 -0.23243845 4.25 -0.3125 C5.03890625 -0.37050781 5.8278125 -0.42851562 6.640625 -0.48828125 C9 0 9 0 11.25390625 2.0859375 C13.34691915 5.57897469 13.55999385 7.88808041 13.6875 11.9375 C13.85694466 16.38663262 14.17757217 20.62040465 15 25 C12.69 25 10.38 25 8 25 C8 23.35 8 21.7 8 20 C6.29159719 21.63412443 5.06546953 22.86906094 4 25 C1.69 25 -0.62 25 -3 25 C-1.79645581 20.58700462 -0.56751319 17.91887443 3 15 C3.99 14.67 4.98 14.34 6 14 C6 11.03 6 8.06 6 5 C4.02 5 2.04 5 0 5 C0 3.35 0 1.7 0 0 Z " fill="#757D85" transform="translate(176,350)"/>
<path d="M0 0 C1.08023438 -0.020625 2.16046875 -0.04125 3.2734375 -0.0625 C9.77571185 -0.09421841 14.45442245 0.55709214 20.375 3.25 C21.4990625 3.70761719 22.623125 4.16523438 23.78125 4.63671875 C25.31265625 5.28060547 25.31265625 5.28060547 26.875 5.9375 C28.43734375 6.59298828 28.43734375 6.59298828 30.03125 7.26171875 C30.8046875 7.58785156 31.578125 7.91398438 32.375 8.25 C32.375 9.24 32.375 10.23 32.375 11.25 C33.365 11.745 33.365 11.745 34.375 12.25 C33.715 12.58 33.055 12.91 32.375 13.25 C30.25103961 12.22615721 28.17376934 11.10455012 26.125 9.9375 C12.25037977 2.05709934 -2.08719699 0.45530978 -17.4609375 4.34375 C-32.87652851 8.75907977 -44.68116104 16.96975427 -53.625 30.25 C-54.75 26.5 -54.75 26.5 -53.625 24.25 C-52.965 24.25 -52.305 24.25 -51.625 24.25 C-51.625 23.26 -51.625 22.27 -51.625 21.25 C-50.965 21.25 -50.305 21.25 -49.625 21.25 C-49.295 20.26 -48.965 19.27 -48.625 18.25 C-46.29296984 15.60703248 -45.00826722 14.37775574 -41.625 13.25 C-41.295 12.59 -40.965 11.93 -40.625 11.25 C-35.20192308 8.25 -35.20192308 8.25 -32.625 8.25 C-32.625 7.59 -32.625 6.93 -32.625 6.25 C-29.16 5.755 -29.16 5.755 -25.625 5.25 C-25.625 4.59 -25.625 3.93 -25.625 3.25 C-18.69039521 -1.37306986 -8.08044714 0.0388483 0 0 Z " fill="#95C8E1" transform="translate(252.625,224.75)"/>
<path d="M0 0 C2.73083902 -0.13548815 5.45491807 -0.23429855 8.1875 -0.3125 C8.95642578 -0.35439453 9.72535156 -0.39628906 10.51757812 -0.43945312 C14.78026789 -0.53092715 16.47994719 -0.39496821 19.98828125 2.26953125 C23.47864796 7.0069416 23.12824042 11.52552665 23.0625 17.25 C23.05798828 17.99507813 23.05347656 18.74015625 23.04882812 19.5078125 C23.03709246 21.3385764 23.0191585 23.16929873 23 25 C21.02 25 19.04 25 17 25 C16.95101563 24.05898438 16.90203125 23.11796875 16.8515625 22.1484375 C16.77679688 20.90320313 16.70203125 19.65796875 16.625 18.375 C16.55539062 17.14523437 16.48578125 15.91546875 16.4140625 14.6484375 C16.07465763 10.53320274 16.07465763 10.53320274 14 5 C9.38 5 4.76 5 0 5 C0 3.35 0 1.7 0 0 Z " fill="#434C55" transform="translate(346,350)"/>
<path d="M0 0 C2.73156959 -0.16262928 5.45342122 -0.28110686 8.1875 -0.375 C8.95642578 -0.42527344 9.72535156 -0.47554688 10.51757812 -0.52734375 C16.10373433 -0.67119327 16.10373433 -0.67119327 18.63134766 1.22167969 C23.25399915 6.50803681 23.14477624 11.05397984 23.0625 17.75 C23.05798828 18.44738281 23.05347656 19.14476562 23.04882812 19.86328125 C23.0371002 21.57555803 23.01916653 23.28779033 23 25 C21.02 25 19.04 25 17 25 C16.96261719 23.87980469 16.92523438 22.75960938 16.88671875 21.60546875 C16.82105743 20.1327791 16.75461014 18.66012434 16.6875 17.1875 C16.66494141 16.44951172 16.64238281 15.71152344 16.61914062 14.95117188 C16.47387563 12.03266612 16.34280729 9.59991276 14.875 7.03125 C12.06033105 5.48318208 9.49903296 5.47024916 6.3125 5.3125 C4.54326172 5.21388672 4.54326172 5.21388672 2.73828125 5.11328125 C1.83464844 5.07589844 0.93101562 5.03851563 0 5 C0 3.35 0 1.7 0 0 Z " fill="#697178" transform="translate(218,350)"/>
<path d="M0 0 C2.4178712 -0.10826289 4.83087556 -0.18739789 7.25 -0.25 C8.27287109 -0.30027344 8.27287109 -0.30027344 9.31640625 -0.3515625 C12.66663354 -0.41661546 14.6099379 -0.28156801 17.359375 1.703125 C20.99236786 6.78931501 21.26742675 11.18267175 21.125 17.3125 C21.11597656 18.05306641 21.10695312 18.79363281 21.09765625 19.55664062 C21.07424213 21.37123467 21.03837615 23.18566071 21 25 C19.02 25 17.04 25 15 25 C14.96261719 23.96359375 14.92523438 22.9271875 14.88671875 21.859375 C14.82104212 20.48954816 14.75459536 19.11975809 14.6875 17.75 C14.66494141 17.06808594 14.64238281 16.38617188 14.61914062 15.68359375 C14.45862678 12.67760713 14.13687876 10.28096167 12.8125 7.5625 C10.33494787 5.42667919 8.54745479 5.40223317 5.3125 5.25 C4.31863281 5.19328125 3.32476562 5.1365625 2.30078125 5.078125 C1.16189453 5.03945313 1.16189453 5.03945313 0 5 C0 3.35 0 1.7 0 0 Z " fill="#39444D" transform="translate(192,350)"/>
<path d="M0 0 C1.98 0 3.96 0 6 0 C6 11.55 6 23.1 6 35 C4.02 35 2.04 35 0 35 C0 23.45 0 11.9 0 0 Z " fill="#4F5A64" transform="translate(257,350)"/>
<path d="M0 0 C1.98 0 3.96 0 6 0 C4.98473282 16.03053435 4.98473282 16.03053435 2 22 C1.34 22 0.68 22 0 22 C0 22.66 0 23.32 0 24 C-0.99 23.67 -1.98 23.34 -3 23 C-3 22.34 -3 21.68 -3 21 C-4.32 21 -5.64 21 -7 21 C-6.67 20.34 -6.34 19.68 -6 19 C-5.34 19 -4.68 19 -4 19 C-4 18.34 -4 17.68 -4 17 C-3.34 17 -2.68 17 -2 17 C-1.93941406 16.19175781 -1.87882813 15.38351562 -1.81640625 14.55078125 C-1.73261719 13.48214844 -1.64882812 12.41351563 -1.5625 11.3125 C-1.48128906 10.25675781 -1.40007812 9.20101563 -1.31640625 8.11328125 C-1.03548319 5.34913703 -0.59843148 2.71054259 0 0 Z " fill="#50575F" transform="translate(166,350)"/>
<path d="M0 0 C2.68437182 2.68437182 3.13537797 5.60477491 4 9.1875 C4.17370117 9.89712891 4.34740234 10.60675781 4.52636719 11.33789062 C6.82218967 21.06390784 8.40882382 30.98381641 8 41 C-0.18646731 42.15136362 -8.31509354 42.11414983 -16.5625 42.0625 C-17.96679527 42.05747366 -19.3710923 42.05291276 -20.77539062 42.04882812 C-24.18363903 42.03711593 -27.5917964 42.02071372 -31 42 C-31 41.67 -31 41.34 -31 41 C-30.30028076 40.97494385 -29.60056152 40.9498877 -28.87963867 40.92407227 C-25.64880582 40.80662133 -22.41816098 40.68458364 -19.1875 40.5625 C-18.08728516 40.52318359 -16.98707031 40.48386719 -15.85351562 40.44335938 C-8.87496137 40.1757452 -1.94750339 39.71160177 5 39 C4.88535985 36.29087219 4.75862846 33.58320339 4.625 30.875 C4.5940625 30.11445313 4.563125 29.35390625 4.53125 28.5703125 C4.29620749 24.02615728 3.5889794 20.30348589 2 16 C1.58529528 14.15430798 1.20873623 12.29953629 0.875 10.4375 C0.70742188 9.52871094 0.53984375 8.61992187 0.3671875 7.68359375 C0.01138004 5.08317117 -0.06634541 2.62064372 0 0 Z " fill="#AFD4E6" transform="translate(362,250)"/>
<path d="M0 0 C1.65 0 3.3 0 5 0 C5.12375 0.804375 5.2475 1.60875 5.375 2.4375 C5.684375 3.7059375 5.684375 3.7059375 6 5 C6.66 5.33 7.32 5.66 8 6 C7.67 8.31 7.34 10.62 7 13 C6.01 13 5.02 13 4 13 C4 13.99 4 14.98 4 16 C4.66 16 5.32 16 6 16 C6.33 15.34 6.66 14.68 7 14 C6.67 17.63 6.34 21.26 6 25 C4.02 25 2.04 25 0 25 C0.50546125 21.46177123 1.01008026 17.94776591 1.6875 14.4375 C2.03170282 10.65126894 1.30243004 8.52422247 0 5 C-0.125 2.125 -0.125 2.125 0 0 Z " fill="#444D56" transform="translate(317,350)"/>
<path d="M0 0 C0.66 0 1.32 0 2 0 C2.33 2.64 2.66 5.28 3 8 C3.66 8 4.32 8 5 8 C5 8.66 5 9.32 5 10 C21.83 10 38.66 10 56 10 C56 10.33 56 10.66 56 11 C44.60800889 12.33872498 33.20041381 12.11233346 21.75 12.0625 C19.73307403 12.05747471 17.71614684 12.05291362 15.69921875 12.04882812 C10.79944878 12.03790468 5.89973804 12.02069684 1 12 C0.67 8.04 0.34 4.08 0 0 Z " fill="#82BCDB" transform="translate(312,279)"/>
<path d="M0 0 C1.43583001 -0.10836453 2.8740202 -0.18576167 4.3125 -0.25 C5.11300781 -0.29640625 5.91351563 -0.3428125 6.73828125 -0.390625 C9 0 9 0 10.78125 1.59375 C12.39814904 4.78608913 12.29429009 7.19033033 12.1875 10.75 C12.16042969 11.92046875 12.13335937 13.0909375 12.10546875 14.296875 C12.07066406 15.18890625 12.03585938 16.0809375 12 17 C10.35 16.67 8.7 16.34 7 16 C5.82428549 12.32589215 5.92633254 8.83070817 6 5 C4.02 5 2.04 5 0 5 C0 3.35 0 1.7 0 0 Z " fill="#354048" transform="translate(176,350)"/>
<path d="M0 0 C0.33 1.32 0.66 2.64 1 4 C0.01 4 -0.98 4 -2 4 C-2 5.65 -2 7.3 -2 9 C-2.61875 9.226875 -3.2375 9.45375 -3.875 9.6875 C-6.66091233 11.40821056 -6.87219098 12.96901327 -8 16 C-9.31321858 17.6825613 -10.64613064 19.34997172 -12 21 C-12.495 22.0209375 -12.495 22.0209375 -13 23.0625 C-14 25 -14 25 -15.8125 26.6875 C-18.50505782 29.53391827 -20.06897276 32.60554891 -21.8515625 36.07421875 C-23 38 -23 38 -25 39 C-21.12444254 24.01451117 -9.98045739 11.44101213 0 0 Z " fill="#8DC9E5" transform="translate(165,205)"/>
<path d="M0 0 C0.33 0.99 0.66 1.98 1 3 C1.66 3 2.32 3 3 3 C3 8.61 3 14.22 3 20 C-1.29 20 -5.58 20 -10 20 C-10 18.68 -10 17.36 -10 16 C-7.36 16 -4.72 16 -2 16 C-2.02320313 15.26394531 -2.04640625 14.52789062 -2.0703125 13.76953125 C-2.08835937 12.79371094 -2.10640625 11.81789063 -2.125 10.8125 C-2.14820313 9.84957031 -2.17140625 8.88664062 -2.1953125 7.89453125 C-1.9913544 4.87187222 -1.26874632 2.73230015 0 0 Z " fill="#4D5861" transform="translate(338,355)"/>
<path d="M0 0 C2.77109307 -0.05392397 5.54113818 -0.09363455 8.3125 -0.125 C9.09818359 -0.14175781 9.88386719 -0.15851563 10.69335938 -0.17578125 C11.45068359 -0.18222656 12.20800781 -0.18867188 12.98828125 -0.1953125 C13.68477783 -0.20578613 14.38127441 -0.21625977 15.09887695 -0.22705078 C17 0 17 0 20 2 C19.67 2.66 19.34 3.32 19 4 C18.01 4.33 17.02 4.66 16 5 C15.67 5.99 15.34 6.98 15 8 C14.67 7.01 14.34 6.02 14 5 C9.38 5 4.76 5 0 5 C0 3.35 0 1.7 0 0 Z " fill="#677076" transform="translate(346,350)"/>
<path d="M0 0 C1.98 0 3.96 0 6 0 C5.93970033 1.91752953 5.85083293 3.83417426 5.75 5.75 C5.68039063 7.35101563 5.68039063 7.35101563 5.609375 8.984375 C4.88898363 12.54938871 3.84403396 13.79747746 1 16 C0.34 16 -0.32 16 -1 16 C-1 14.68 -1 13.36 -1 12 C-1.99 11.67 -2.98 11.34 -4 11 C-3.34 10.67 -2.68 10.34 -2 10 C-1.31068656 7.65092125 -1.31068656 7.65092125 -0.875 4.9375 C-0.70742187 4.01839844 -0.53984375 3.09929687 -0.3671875 2.15234375 C-0.24601563 1.44207031 -0.12484375 0.73179687 0 0 Z " fill="#4E575F" transform="translate(154,350)"/>
<path d="M0 0 C2 3 2 3 1.8125 6.375 C1 10 1 10 -0.44921875 12.3671875 C-6.02339005 21.83064205 -5.628396 34.30036757 -6 45 C-6.33 45 -6.66 45 -7 45 C-10.08669442 29.56652789 -5.23762954 14.40865675 0 0 Z " fill="#95C9E1" transform="translate(139,244)"/>
<path d="M0 0 C0 0.66 0 1.32 0 2 C0.99 2.33 1.98 2.66 3 3 C1.32164062 2.7834375 1.32164062 2.7834375 -0.390625 2.5625 C-15.26917391 0.79184537 -30.03279117 0.78914855 -45 1 C-45 0.67 -45 0.34 -45 0 C-29.72600401 -2.45788441 -15.3005187 -2.67759077 0 0 Z " fill="#ACD5E7" transform="translate(273,171)"/>
<path d="M0 0 C1.98 0 3.96 0 6 0 C6 4.62 6 9.24 6 14 C4.02 14 2.04 14 0 14 C0 9.38 0 4.76 0 0 Z " fill="#4F5962" transform="translate(346,361)"/>
<path d="M0 0 C1.98 0 3.96 0 6 0 C6 4.62 6 9.24 6 14 C4.02 14 2.04 14 0 14 C0 9.38 0 4.76 0 0 Z " fill="#555D65" transform="translate(218,361)"/>
<path d="M0 0 C1.98 0 3.96 0 6 0 C6 4.62 6 9.24 6 14 C4.02 14 2.04 14 0 14 C0 9.38 0 4.76 0 0 Z " fill="#5A636A" transform="translate(131,350)"/>
<path d="M0 0 C2.475 0.495 2.475 0.495 5 1 C5 5.95 5 10.9 5 16 C3.35 16 1.7 16 0 16 C0 10.72 0 5.44 0 0 Z " fill="#323D46" transform="translate(207,359)"/>
<path d="M0 0 C3.1875 -0.5 3.1875 -0.5 7 0 C9.23991735 2.37550556 10.82532912 4.9531974 12 8 C11.67 8.66 11.34 9.32 11 10 C10.01 10.33 9.02 10.66 8 11 C7.67 11.66 7.34 12.32 7 13 C5.82479354 11.40207898 4.66008753 9.79643092 3.5 8.1875 C2.8503125 7.29417969 2.200625 6.40085937 1.53125 5.48046875 C0 3 0 3 0 0 Z " fill="#787C82" transform="translate(292,350)"/>
<path d="M0 0 C2.475 0.99 2.475 0.99 5 2 C5 6.62 5 11.24 5 16 C3.35 16 1.7 16 0 16 C0 10.72 0 5.44 0 0 Z " fill="#363F49" transform="translate(235,359)"/>
<path d="M0 0 C0.33 0.66 0.66 1.32 1 2 C0.34 2 -0.32 2 -1 2 C-0.67 3.32 -0.34 4.64 0 6 C-2.81227622 6.93742541 -4.58746844 7.13470844 -7.5 7.125 C-8.2734375 7.12757813 -9.046875 7.13015625 -9.84375 7.1328125 C-12 7 -12 7 -15 6 C-15.33 5.01 -15.66 4.02 -16 3 C-10.72 2.01 -5.44 1.02 0 0 Z " fill="#39424A" transform="translate(164,369)"/>
<path d="M0 0 C2.52554365 0.02146354 4.99602213 0.13958887 7.5078125 0.3984375 C7.5078125 0.7284375 7.5078125 1.0584375 7.5078125 1.3984375 C4.5378125 1.3984375 1.5678125 1.3984375 -1.4921875 1.3984375 C-1.1621875 2.3884375 -0.8321875 3.3784375 -0.4921875 4.3984375 C1.4878125 4.3984375 3.4678125 4.3984375 5.5078125 4.3984375 C5.1778125 5.0584375 4.8478125 5.7184375 4.5078125 6.3984375 C3.7034375 6.5015625 2.8990625 6.6046875 2.0703125 6.7109375 C-0.62692336 7.11957125 -0.62692336 7.11957125 -1.6796875 9.3359375 C-2.82483379 13.65225813 -3.69056086 18.00654686 -4.4921875 22.3984375 C-4.8221875 22.3984375 -5.1521875 22.3984375 -5.4921875 22.3984375 C-5.4921875 20.4184375 -5.4921875 18.4384375 -5.4921875 16.3984375 C-6.1521875 16.3984375 -6.8121875 16.3984375 -7.4921875 16.3984375 C-7.4921875 15.4084375 -7.4921875 14.4184375 -7.4921875 13.3984375 C-6.5021875 13.3984375 -5.5121875 13.3984375 -4.4921875 13.3984375 C-4.32531302 10.98197968 -4.32531302 10.98197968 -4.4921875 8.3984375 C-5.1521875 7.7384375 -5.8121875 7.0784375 -6.4921875 6.3984375 C-3.84102471 0.61408232 -3.84102471 0.61408232 0 0 Z " fill="#6A7078" transform="translate(328.4921875,349.6015625)"/>
<path d="M0 0 C2.31 0 4.62 0 7 0 C6.14285714 8.57142857 6.14285714 8.57142857 4 12 C3.34 12 2.68 12 2 12 C0 10 0 10 -0.1953125 7.6171875 C-0.17210937 6.71226562 -0.14890625 5.80734375 -0.125 4.875 C-0.10695313 3.96492188 -0.08890625 3.05484375 -0.0703125 2.1171875 C-0.04710937 1.41851562 -0.02390625 0.71984375 0 0 Z " fill="#464F59" transform="translate(307,350)"/>
<path d="M0 0 C1.13050781 -0.01224609 2.26101562 -0.02449219 3.42578125 -0.03710938 C4.50214844 -0.03904297 5.57851563 -0.04097656 6.6875 -0.04296875 C7.66074219 -0.04707764 8.63398438 -0.05118652 9.63671875 -0.05541992 C12 0.1875 12 0.1875 14 2.1875 C13.39115967 2.17702637 12.78231934 2.16655273 12.1550293 2.15576172 C-2.44645374 1.77935647 -2.44645374 1.77935647 -16.859375 3.7421875 C-19.95820417 4.38683444 -22.84751529 4.32761043 -26 4.1875 C-24.39851091 2.28413787 -23.42219119 1.29289498 -20.9765625 0.68237305 C-13.98193498 0.17476874 -7.01270714 0.00411061 0 0 Z " fill="#89C2E1" transform="translate(253,224.8125)"/>
<path d="M0 0 C1.65 0.33 3.3 0.66 5 1 C3.35 9.25 1.7 17.5 0 26 C-0.66 26 -1.32 26 -2 26 C-1.69224454 22.91617386 -1.3779641 19.83304635 -1.0625 16.75 C-0.97548828 15.87730469 -0.88847656 15.00460937 -0.79882812 14.10546875 C-0.71181641 13.26113281 -0.62480469 12.41679687 -0.53515625 11.546875 C-0.456604 10.77182617 -0.37805176 9.99677734 -0.29711914 9.19824219 C-0.00997086 7.07376962 0.43794772 5.06703475 1 3 C0.34 2.67 -0.32 2.34 -1 2 C-0.67 1.34 -0.34 0.68 0 0 Z " fill="#92C4DB" transform="translate(187,265)"/>
<path d="M0 0 C2.26979665 -0.10794277 4.54105196 -0.18556176 6.8125 -0.25 C8.07707031 -0.29640625 9.34164063 -0.3428125 10.64453125 -0.390625 C11.75183594 -0.26171875 12.85914063 -0.1328125 14 0 C14.99 1.32 15.98 2.64 17 4 C11.39 4 5.78 4 0 4 C0 2.68 0 1.36 0 0 Z " fill="#374149" transform="translate(293,371)"/>
<path d="M0 0 C0.33 0 0.66 0 1 0 C0.7444669 5.86448454 0.34242429 9.65757571 -4 14 C-4.99 13.67 -5.98 13.34 -7 13 C-7 12.34 -7 11.68 -7 11 C-7.99 11.33 -8.98 11.66 -10 12 C-10.66 11.34 -11.32 10.68 -12 10 C-11.38125 9.71125 -10.7625 9.4225 -10.125 9.125 C-7.86674235 8.06279958 -7.86674235 8.06279958 -6 6 C-5.01 6 -4.02 6 -3 6 C-3 5.01 -3 4.02 -3 3 C-2.34 3 -1.68 3 -1 3 C-0.67 2.01 -0.34 1.02 0 0 Z " fill="#687078" transform="translate(290,360)"/>
<path d="M0 0 C1.485 0.99 1.485 0.99 3 2 C2.67 6.62 2.34 11.24 2 16 C4.77042109 13.22957891 4.39796106 11.23466195 4.625 7.375 C4.69976562 6.18648438 4.77453125 4.99796875 4.8515625 3.7734375 C4.90054687 2.85820312 4.94953125 1.94296875 5 1 C5.66 1 6.32 1 7 1 C7 6.28 7 11.56 7 17 C5.02 17 3.04 17 1 17 C0.67 11.39 0.34 5.78 0 0 Z " fill="#636A70" transform="translate(362,358)"/>
<path d="M0 0 C1.32 1.32 2.64 2.64 4 4 C4.33 2.68 4.66 1.36 5 0 C5 3.63 5 7.26 5 11 C4.34 11 3.68 11 3 11 C3 11.66 3 12.32 3 13 C3.66 13.33 4.32 13.66 5 14 C4.34 14 3.68 14 3 14 C2.67 14.99 2.34 15.98 2 17 C0.14868517 13.07142246 -0.22004943 10.01224888 -0.125 5.6875 C-0.10695312 4.61886719 -0.08890625 3.55023438 -0.0703125 2.44921875 C-0.04710937 1.64097656 -0.02390625 0.83273437 0 0 Z " fill="#414A52" transform="translate(142,351)"/>
<path d="M0 0 C0.66 0 1.32 0 2 0 C4.70172645 5.39636175 5.40128581 9.44601563 5.1875 15.4375 C5.17396484 16.16904297 5.16042969 16.90058594 5.14648438 17.65429688 C5.11153874 19.43652422 5.05774805 21.21836573 5 23 C4.67 23 4.34 23 4 23 C3.67 18.05 3.34 13.1 3 8 C1.35 8 -0.3 8 -2 8 C-3.8125 5.5 -3.8125 5.5 -5 3 C-1.25 1.875 -1.25 1.875 1 3 C0.67 2.01 0.34 1.02 0 0 Z " fill="#838B91" transform="translate(208,352)"/>
<path d="M0 0 C1.45742463 -0.08096803 2.91612807 -0.13917774 4.375 -0.1875 C5.18710938 -0.22230469 5.99921875 -0.25710938 6.8359375 -0.29296875 C7.55007812 -0.19628906 8.26421875 -0.09960938 9 0 C9.66 0.99 10.32 1.98 11 3 C9.68 3 8.36 3 7 3 C7 5.97 7 8.94 7 12 C6.67 12 6.34 12 6 12 C6 9.69 6 7.38 6 5 C4.02 5 2.04 5 0 5 C0 3.35 0 1.7 0 0 Z " fill="#878B93" transform="translate(176,350)"/>
<path d="M0 0 C1.35015859 4.05047576 0.62084998 6.7920168 0 11 C-1.98 11 -3.96 11 -6 11 C-5.125 4.25 -5.125 4.25 -4 2 C-2.68 2 -1.36 2 0 2 C0 1.34 0 0.68 0 0 Z " fill="#333E47" transform="translate(323,364)"/>
<path d="M0 0 C1.32 0.66 2.64 1.32 4 2 C4 4.97 4 7.94 4 11 C3.67 10.34 3.34 9.68 3 9 C2.731875 9.639375 2.46375 10.27875 2.1875 10.9375 C1 13 1 13 -2 14 C-1.34 9.38 -0.68 4.76 0 0 Z " fill="#3B464E" transform="translate(286,354)"/>
<path d="M0 0 C5.28 0 10.56 0 16 0 C12.41087588 3.58912412 11.22706417 3.44420474 6.3125 3.6875 C5.13300781 3.75324219 3.95351562 3.81898438 2.73828125 3.88671875 C1.38283203 3.94279297 1.38283203 3.94279297 0 4 C0 2.68 0 1.36 0 0 Z " fill="#323B43" transform="translate(218,351)"/>
<path d="M0 0 C0.66 0.99 1.32 1.98 2 3 C1.175 3.391875 0.35 3.78375 -0.5 4.1875 C-1.7375 5.0846875 -1.7375 5.0846875 -3 6 C-3.41780879 8.62694422 -3.41780879 8.62694422 -3 11 C-4.98 11 -6.96 11 -9 11 C-7.79645581 6.58700462 -6.56751319 3.91887443 -3 1 C-2.01 0.67 -1.02 0.34 0 0 Z " fill="#575D65" transform="translate(182,364)"/>
<path d="M0 0 C0.33 0 0.66 0 1 0 C1 5.28 1 10.56 1 16 C-2.96 16 -6.92 16 -11 16 C-11 14.68 -11 13.36 -11 12 C-8.69 12 -6.38 12 -4 12 C-4 12.66 -4 13.32 -4 14 C-2.68 14.33 -1.36 14.66 0 15 C0 10.05 0 5.1 0 0 Z " fill="#2D363C" transform="translate(339,359)"/>
<path d="M0 0 C1.65 0.99 3.3 1.98 5 3 C4.67 3.66 4.34 4.32 4 5 C3.67 4.67 3.34 4.34 3 4 C2.34 7.63 1.68 11.26 1 15 C0.67 15 0.34 15 0 15 C-0.13277344 14.36191406 -0.26554687 13.72382813 -0.40234375 13.06640625 C-0.66724609 11.82697266 -0.66724609 11.82697266 -0.9375 10.5625 C-1.11152344 9.73878906 -1.28554688 8.91507812 -1.46484375 8.06640625 C-1.80752994 6.02338796 -1.80752994 6.02338796 -3 5 C-4.34747084 4.76924918 -5.70377565 4.58846937 -7.0625 4.4375 C-8.361875 4.293125 -9.66125 4.14875 -11 4 C-11 3.67 -11 3.34 -11 3 C-10.28972656 2.95101563 -9.57945312 2.90203125 -8.84765625 2.8515625 C-7.46900391 2.73941406 -7.46900391 2.73941406 -6.0625 2.625 C-5.14597656 2.55539062 -4.22945313 2.48578125 -3.28515625 2.4140625 C-2.15400391 2.20910156 -2.15400391 2.20910156 -1 2 C-0.67 1.34 -0.34 0.68 0 0 Z " fill="#798289" transform="translate(284,351)"/>
<path d="M0 0 C0.99 0.33 1.98 0.66 3 1 C5.10254829 5.58104891 5.24975163 9.92331998 5.125 14.875 C5.11597656 15.56335938 5.10695312 16.25171875 5.09765625 16.9609375 C5.07432513 18.64077838 5.03846326 20.32043746 5 22 C4.67 22 4.34 22 4 22 C4 17.38 4 12.76 4 8 C2.02 7.34 0.04 6.68 -2 6 C-1.34 5.34 -0.68 4.68 0 4 C0 2.68 0 1.36 0 0 Z " fill="#80868C" transform="translate(236,353)"/>
<path d="M0 0 C1 3 1 3 0.0625 5.1875 C-0.288125 5.785625 -0.63875 6.38375 -1 7 C-1.66 7 -2.32 7 -3 7 C-3 7.66 -3 8.32 -3 9 C-3.99 8.67 -4.98 8.34 -6 8 C-6 7.34 -6 6.68 -6 6 C-7.32 6 -8.64 6 -10 6 C-9.67 5.34 -9.34 4.68 -9 4 C-8.34 4 -7.68 4 -7 4 C-7 3.34 -7 2.68 -7 2 C-4.69 2 -2.38 2 0 2 C0 1.34 0 0.68 0 0 Z " fill="#727A81" transform="translate(169,365)"/>
<path d="M0 0 C0.33 0.66 0.66 1.32 1 2 C-0.07421875 4.171875 -0.07421875 4.171875 -1.6875 6.75 C-2.24050781 7.63945312 -2.79351562 8.52890625 -3.36328125 9.4453125 C-5.20711248 12.32327341 -7.06994587 15.17915165 -9 18 C-9.33 17.34 -9.66 16.68 -10 16 C-9.109375 13.79296875 -9.109375 13.79296875 -7.75 11.1875 C-7.28464844 10.29546875 -6.81929687 9.4034375 -6.33984375 8.484375 C-2.41550054 1.20775027 -2.41550054 1.20775027 0 0 Z " fill="#A2CCE0" transform="translate(150,226)"/>
<path d="M0 0 C1.32 0 2.64 0 4 0 C4.28875 0.804375 4.5775 1.60875 4.875 2.4375 C5.73262568 5.1326468 5.73262568 5.1326468 8 6 C8.625 8.5625 8.625 8.5625 9 11 C9.66 11 10.32 11 11 11 C11 11.66 11 12.32 11 13 C10.01 13 9.02 13 8 13 C5.95703125 10.6640625 5.95703125 10.6640625 3.8125 7.625 C2.73935547 6.12839844 2.73935547 6.12839844 1.64453125 4.6015625 C0 2 0 2 0 0 Z " fill="#8DC1DE" transform="translate(296,246)"/>
<path d="M0 0 C-0.33 0.99 -0.66 1.98 -1 3 C-1.78375 3.0825 -2.5675 3.165 -3.375 3.25 C-6.14749104 3.72806339 -6.14749104 3.72806339 -7.3125 6.0625 C-7.539375 6.701875 -7.76625 7.34125 -8 8 C-10.97 7.505 -10.97 7.505 -14 7 C-12.5438656 4.08773121 -10.50039336 3.68157936 -7.5625 2.375 C-6.07943359 1.70597656 -6.07943359 1.70597656 -4.56640625 1.0234375 C-2 0 -2 0 0 0 Z " fill="#98CBE3" transform="translate(205,179)"/>
<path d="M0 0 C0.33 0 0.66 0 1 0 C1 4.62 1 9.24 1 14 C0.01 14 -0.98 14 -2 14 C-2.05410687 12.22950311 -2.09284119 10.45853151 -2.125 8.6875 C-2.14820313 7.70136719 -2.17140625 6.71523438 -2.1953125 5.69921875 C-2 3 -2 3 0 0 Z " fill="#37434E" transform="translate(366,360)"/>
<path d="M0 0 C1.17046875 0.11085937 2.3409375 0.22171875 3.546875 0.3359375 C4.43890625 0.43132812 5.3309375 0.52671875 6.25 0.625 C6.25 1.285 6.25 1.945 6.25 2.625 C7.24 2.955 8.23 3.285 9.25 3.625 C2.65 2.965 -3.95 2.305 -10.75 1.625 C-6.35405194 -0.57297403 -4.75732024 -0.47573202 0 0 Z " fill="#96C8E2" transform="translate(266.75,170.375)"/>
<path d="M0 0 C4.95 0 9.9 0 15 0 C15 0.99 15 1.98 15 3 C14.67 2.34 14.34 1.68 14 1 C12.18674449 1.11351517 10.37436643 1.24112961 8.5625 1.375 C7.55316406 1.44460938 6.54382813 1.51421875 5.50390625 1.5859375 C4.26447266 1.79089844 4.26447266 1.79089844 3 2 C2.67 2.66 2.34 3.32 2 4 C4.31 4 6.62 4 9 4 C9 4.33 9 4.66 9 5 C6.03 5 3.06 5 0 5 C0 3.35 0 1.7 0 0 Z " fill="#767D83" transform="translate(192,350)"/>
<path d="M0 0 C4.85967024 2.50346649 8.27856704 6.08552441 12 10 C9 11 9 11 6 10 C6 8.68 6 7.36 6 6 C5.071875 5.9071875 5.071875 5.9071875 4.125 5.8125 C2 5 2 5 0.75 2.4375 C0.5025 1.633125 0.255 0.82875 0 0 Z " fill="#9FD1E6" transform="translate(326,198)"/>
<path d="M0 0 C0.91007812 0.00902344 1.82015625 0.01804687 2.7578125 0.02734375 C3.45648438 0.03894531 4.15515625 0.05054688 4.875 0.0625 C3.885 0.5575 3.885 0.5575 2.875 1.0625 C2.875 2.0525 2.875 3.0425 2.875 4.0625 C-0.425 3.7325 -3.725 3.4025 -7.125 3.0625 C-7.125 2.4025 -7.125 1.7425 -7.125 1.0625 C-4.60024538 -0.19987731 -2.81299534 -0.03606404 0 0 Z " fill="#374048" transform="translate(357.125,350.9375)"/>
<path d="M0 0 C-2.25170312 2.25170312 -3.32987578 2.51474 -6.375 3.1875 C-7.53128906 3.45626953 -7.53128906 3.45626953 -8.7109375 3.73046875 C-11.11082272 4.01304909 -12.71670535 3.73503321 -15 3 C-9.40309575 0.07434551 -6.21474283 -1.55368571 0 0 Z " fill="#90C7E2" transform="translate(229,173)"/>
<path d="M0 0 C4.47238653 1.41807378 8.71146306 3.11304374 13 5 C12.01 5.66 11.02 6.32 10 7 C7.51953125 6.3203125 7.51953125 6.3203125 4.8125 5.125 C3.91144531 4.73570312 3.01039063 4.34640625 2.08203125 3.9453125 C1.39496094 3.63335937 0.70789063 3.32140625 0 3 C0 2.01 0 1.02 0 0 Z " fill="#98CBE3" transform="translate(291,177)"/>
<path d="M0 0 C3.3 0 6.6 0 10 0 C9.67 0.99 9.34 1.98 9 3 C5.7 3 2.4 3 -1 3 C-0.67 2.01 -0.34 1.02 0 0 Z " fill="#343F48" transform="translate(274,351)"/>
<path d="M0 0 C0.66 0.33 1.32 0.66 2 1 C2 1.66 2 2.32 2 3 C2.66 3 3.32 3 4 3 C4.33 4.65 4.66 6.3 5 8 C4.01 8.33 3.02 8.66 2 9 C1.01 8.34 0.02 7.68 -1 7 C-0.67 4.69 -0.34 2.38 0 0 Z " fill="#545C66" transform="translate(308,366)"/>
<path d="M0 0 C1.65 0.33 3.3 0.66 5 1 C5.5625 2.9375 5.5625 2.9375 6 5 C5 6 5 6 1.9375 6.0625 C0.4834375 6.0315625 0.4834375 6.0315625 -1 6 C-0.67 4.02 -0.34 2.04 0 0 Z " fill="#646B72" transform="translate(273,360)"/>
<path d="M0 0 C1.98 0 3.96 0 6 0 C5.67 0.99 5.34 1.98 5 3 C5 2.34 5 1.68 5 1 C2.90217213 3.09782787 2.3490604 4.3799207 1.375 7.125 C1.11460937 7.84945313 0.85421875 8.57390625 0.5859375 9.3203125 C0.39257812 9.87460937 0.19921875 10.42890625 0 11 C-0.33 11 -0.66 11 -1 11 C-1.125 3.375 -1.125 3.375 0 0 Z " fill="#666B72" transform="translate(154,350)"/>
<path d="M0 0 C2.31 0 4.62 0 7 0 C7 1.65 7 3.3 7 5 C6.34 5 5.68 5 5 5 C5 4.01 5 3.02 5 2 C2.9754262 3.93254772 1.57894208 5.63158688 0 8 C0 5.36 0 2.72 0 0 Z " fill="#797D83" transform="translate(307,350)"/>
<path d="M0 0 C1.65 0 3.3 0 5 0 C5.33 1.32 5.66 2.64 6 4 C5.34 4 4.68 4 4 4 C3.67 4.66 3.34 5.32 3 6 C2.01 6.495 2.01 6.495 1 7 C0.67 4.69 0.34 2.38 0 0 Z " fill="#61686F" transform="translate(317,350)"/>
<path d="M0 0 C2.97 0 5.94 0 9 0 C8.67 1.65 8.34 3.3 8 5 C7.67 4.34 7.34 3.68 7 3 C4.69 3.33 2.38 3.66 0 4 C0 2.68 0 1.36 0 0 Z " fill="#343D46" transform="translate(327,351)"/>
<path d="M0 0 C2.0625 0.4375 2.0625 0.4375 4 1 C4.33 2.65 4.66 4.3 5 6 C3.02 6 1.04 6 -1 6 C-1.042721 4.33388095 -1.04063832 2.66617115 -1 1 C-0.67 0.67 -0.34 0.34 0 0 Z " fill="#6C7277" transform="translate(269,369)"/>
<path d="M0 0 C0.66 0.33 1.32 0.66 2 1 C0.6875 3 0.6875 3 -1 5 C-1.99 5 -2.98 5 -4 5 C-4 5.66 -4 6.32 -4 7 C-5.98 7.33 -7.96 7.66 -10 8 C-6.97727468 4.74475735 -3.74281699 2.38179263 0 0 Z " fill="#97CEE5" transform="translate(189,186)"/>
<path d="M0 0 C1.98 0 3.96 0 6 0 C5.01 0.495 5.01 0.495 4 1 C4 1.99 4 2.98 4 4 C5.32 4.33 6.64 4.66 8 5 C5.03 5 2.06 5 -1 5 C-0.67 3.35 -0.34 1.7 0 0 Z " fill="#4F5A62" transform="translate(273,371)"/>
<path d="M0 0 C1.32 0 2.64 0 4 0 C4 0.66 4 1.32 4 2 C4.66 2 5.32 2 6 2 C6 2.99 6 3.98 6 5 C4.02 5 2.04 5 0 5 C0 3.35 0 1.7 0 0 Z " fill="#434B52" transform="translate(185,370)"/>
<path d="M0 0 C0.33 0 0.66 0 1 0 C0.88590407 1.45922693 0.75834456 2.91740598 0.625 4.375 C0.55539062 5.18710937 0.48578125 5.99921875 0.4140625 6.8359375 C0 9 0 9 -2 11 C-2 10.34 -2 9.68 -2 9 C-2.99 8.67 -3.98 8.34 -5 8 C-3.25 4.125 -3.25 4.125 -1 3 C-0.67 2.01 -0.34 1.02 0 0 Z " fill="#727982" transform="translate(290,360)"/>
<path d="M0 0 C0.99 0.33 1.98 0.66 3 1 C3.6875 3.0625 3.6875 3.0625 4 5 C3.360625 5.12375 2.72125 5.2475 2.0625 5.375 C1.0415625 5.684375 1.0415625 5.684375 0 6 C-0.33 6.66 -0.66 7.32 -1 8 C-1.99 6.35 -2.98 4.7 -4 3 C-2.68 3 -1.36 3 0 3 C0 2.01 0 1.02 0 0 Z " fill="#797F86" transform="translate(300,355)"/>
<path d="M0 0 C0.99 0.33 1.98 0.66 3 1 C1.35 4.63 -0.3 8.26 -2 12 C-2.33 12 -2.66 12 -3 12 C-2.49202991 7.6822542 -1.80317221 3.96697886 0 0 Z " fill="#9AC9DC" transform="translate(195,254)"/>
<path d="M0 0 C3.29078593 2.79716804 5.06305458 6.19528578 7 10 C6.67 10.66 6.34 11.32 6 12 C3.34930567 9.52601863 1.28384156 7.42357749 0 4 C0 2.68 0 1.36 0 0 Z " fill="#A1CEE3" transform="translate(350,225)"/>
<path d="M0 0 C0 2.31 0 4.62 0 7 C-1.32 7.33 -2.64 7.66 -4 8 C-4.1875 5.125 -4.1875 5.125 -4 2 C-1 0 -1 0 0 0 Z " fill="#39444A" transform="translate(222,367)"/>
<path d="M0 0 C3.71599191 -0.20086443 4.77208445 -0.1519437 8 2 C7.67 2.66 7.34 3.32 7 4 C6.01 4.33 5.02 4.66 4 5 C3.67 5.99 3.34 6.98 3 8 C2.67 7.67 2.34 7.34 2 7 C2.020625 6.195625 2.04125 5.39125 2.0625 4.5625 C2.29058908 1.83081897 2.29058908 1.83081897 0 0 Z " fill="#7E848A" transform="translate(358,350)"/>
<path d="M0 0 C1.98 0 3.96 0 6 0 C6.33 0.66 6.66 1.32 7 2 C5 4 5 4 2.375 4.125 C1.59125 4.08375 0.8075 4.0425 0 4 C0 2.68 0 1.36 0 0 Z " fill="#3F454D" transform="translate(218,351)"/>
<path d="M0 0 C1.65 0.33 3.3 0.66 5 1 C4.67 2.98 4.34 4.96 4 7 C3.01 6.34 2.02 5.68 1 5 C1 4.34 1 3.68 1 3 C0.34 2.67 -0.32 2.34 -1 2 C-0.67 1.34 -0.34 0.68 0 0 Z " fill="#8ECBE7" transform="translate(187,265)"/>
<path d="M0 0 C0.66 1.32 1.32 2.64 2 4 C-0.88211302 4.96070434 -2.69850044 5.10581883 -5.6875 5.0625 C-6.89986328 5.04896484 -6.89986328 5.04896484 -8.13671875 5.03515625 C-9.05904297 5.01775391 -9.05904297 5.01775391 -10 5 C-10 4.67 -10 4.34 -10 4 C-7.69 4 -5.38 4 -3 4 C-3 3.34 -3 2.68 -3 2 C-2.01 2 -1.02 2 0 2 C0 1.34 0 0.68 0 0 Z " fill="#565D64" transform="translate(162,371)"/>
<path d="M0 0 C2.31 0 4.62 0 7 0 C6.67 0.99 6.34 1.98 6 3 C3.69 3 1.38 3 -1 3 C-0.67 2.01 -0.34 1.02 0 0 Z " fill="#313B44" transform="translate(195,351)"/>
<path d="M0 0 C0.66 0 1.32 0 2 0 C1.5206753 4.31392226 0.2542015 6.16569547 -3 9 C-2.67 7.02 -2.34 5.04 -2 3 C-1.34 3 -0.68 3 0 3 C0 2.01 0 1.02 0 0 Z " fill="#9DCEE1" transform="translate(201,246)"/>
<path d="M0 0 C0 3.9478088 -1.33724565 5.18508826 -4 8 C-4.99 8 -5.98 8 -7 8 C-5.61918777 3.8575633 -3.40174442 2.67796901 0 0 Z " fill="#A9D0E6" transform="translate(177,194)"/>
<path d="M0 0 C2.31 0 4.62 0 7 0 C7 0.99 7 1.98 7 3 C5.824375 2.9690625 5.824375 2.9690625 4.625 2.9375 C2.01885039 2.81315937 2.01885039 2.81315937 0 4 C0 2.68 0 1.36 0 0 Z " fill="#384048" transform="translate(328,371)"/>
<path d="M0 0 C0.99 0.33 1.98 0.66 3 1 C3 2.32 3 3.64 3 5 C1.68 5 0.36 5 -1 5 C-1.33 3.68 -1.66 2.36 -2 1 C-1.34 0.67 -0.68 0.34 0 0 Z " fill="#37404A" transform="translate(297,353)"/>
<path d="M0 0 C1.32 0 2.64 0 4 0 C4.66 1.98 5.32 3.96 6 6 C5.01 6 4.02 6 3 6 C0 2.66666667 0 2.66666667 0 0 Z " fill="#92C9E5" transform="translate(296,246)"/>
<path d="M0 0 C2.64 0 5.28 0 8 0 C7.01 0.33 6.02 0.66 5 1 C5 1.66 5 2.32 5 3 C3.35 3 1.7 3 0 3 C0 2.01 0 1.02 0 0 Z " fill="#363B45" transform="translate(177,351)"/>
<path d="M0 0 C4.35535069 1.16142685 6.64619703 2.07699505 9 6 C4.58763974 6 3.21615077 3.9302707 0 1 C0 0.67 0 0.34 0 0 Z " fill="#9ECBE1" transform="translate(286,238)"/>
<path d="M0 0 C0.33 0.99 0.66 1.98 1 3 C1.66 3.33 2.32 3.66 3 4 C1.35 5.32 -0.3 6.64 -2 8 C-1.125 1.125 -1.125 1.125 0 0 Z " fill="#5A6271" transform="translate(319,367)"/>
<path d="M0 0 C1.32 0 2.64 0 4 0 C3.67 1.65 3.34 3.3 3 5 C2.01 4.67 1.02 4.34 0 4 C0 2.68 0 1.36 0 0 Z " fill="#4C5359" transform="translate(269,360)"/>
<path d="M0 0 C0.33 1.32 0.66 2.64 1 4 C0.01 4 -0.98 4 -2 4 C-2.66 5.32 -3.32 6.64 -4 8 C-4.66 7.67 -5.32 7.34 -6 7 C-4.02 4.69 -2.04 2.38 0 0 Z " fill="#A6D3E7" transform="translate(165,205)"/>
<path d="M0 0 C3.465 1.98 3.465 1.98 7 4 C6.67 4.66 6.34 5.32 6 6 C5.01 6 4.02 6 3 6 C2.67 4.68 2.34 3.36 2 2 C1.34 2 0.68 2 0 2 C0 1.34 0 0.68 0 0 Z " fill="#95C8E0" transform="translate(311,187)"/>
</svg>
